<svg width="177" height="34" viewBox="0 0 177 34" fill="none" xmlns="http://www.w3.org/2000/svg">
<g clip-path="url(#clip0)">
<path d="M28.0229 0.0201827C24.4676 0.0241188 21.5881 2.85811 21.5841 6.3573V12.3047L10.974 1.85834C8.46247 -0.617465 4.38721 -0.621401 1.87566 1.85047C0.983822 2.72428 0.375932 3.83426 0.119978 5.04264C0.119978 5.04264 0.119978 5.04264 0.119978 5.06626C0.0839848 5.24338 0.0599892 5.42051 0.0359935 5.59763V5.69997C0.0119978 5.91252 0 6.129 0 6.34155V27.6516C0 31.1508 2.88348 33.9887 6.43884 33.9887C9.99419 33.9887 12.8777 31.1508 12.8777 27.6516V21.6372L23.0318 31.6507C25.2674 34.3705 29.3187 34.7917 32.0822 32.5914C33.5979 31.3869 34.4738 29.5685 34.4698 27.6516V6.34155C34.4578 2.8463 31.5743 0.0201827 28.0229 0.0201827ZM22.4239 8.62843C23.7477 11.6789 27.3351 13.092 30.4345 11.7891C31.8782 11.183 33.026 10.0494 33.6459 8.62843V24.5696C33.338 23.9989 32.938 23.4793 32.4701 23.0267L22.412 13.1156L22.4239 8.62843ZM22.4239 27.6673V14.2846L31.9062 23.621C34.0978 25.778 34.0978 29.2732 31.9062 31.4302C29.7146 33.5872 26.1633 33.5872 23.9717 31.4302L23.6717 31.1153C22.8599 30.1353 22.416 28.9151 22.412 27.6516L22.4239 27.6673ZM12.0258 19.6889L2.42756 10.2422C1.37175 9.21097 0.779859 7.80185 0.783858 6.33762C0.783858 6.14868 0.783858 5.94401 0.811853 5.77869C0.811853 5.7472 0.811853 5.71965 0.811853 5.6921C0.82785 5.53465 0.851846 5.38115 0.88384 5.22764C0.88384 5.22764 0.88384 5.22764 0.88384 5.20402C1.44774 2.21259 4.37121 0.236668 7.41466 0.795594C10.1142 1.29154 12.0498 3.63746 11.9858 6.33762L12.0258 19.6889ZM12.0258 27.6673C12.0258 30.7178 9.51428 33.1897 6.41484 33.1897C3.3154 33.1897 0.803855 30.7178 0.803855 27.6673V26.2543C1.53972 23.2038 4.64716 21.3184 7.7466 22.0426C9.86622 22.5386 11.5219 24.1681 12.0258 26.2543V27.6673ZM12.0258 24.5184C10.3021 21.468 6.39484 20.3698 3.2994 22.0623C2.25159 22.637 1.38775 23.4872 0.803855 24.5184V9.4432C1.0958 9.94702 1.45174 10.4075 1.86366 10.8208L12.0298 20.8225L12.0258 24.5184ZM12.8737 20.4879V6.34155C12.8737 5.76295 12.7897 5.18434 12.6297 4.62541L21.5841 13.4541V27.6516C21.5841 28.2066 21.6641 28.7616 21.8121 29.2969L12.8737 20.4879Z" fill="white"/>
<path d="M53.9741 25.9981V16.6695C53.9741 14.3984 53.1743 13.3357 51.2946 13.3357C49.231 13.3357 48.3671 14.4574 48.3671 16.7325V25.9981H43.2681V9.18307H48.0272V10.9701H48.0912C49.167 9.24211 50.6787 8.6084 52.7424 8.6084C55.8218 8.6084 59.0892 10.3049 59.0892 15.2761V25.9981H53.9741Z" fill="white"/>
<path d="M69.5914 26.5253C64.3923 26.5253 60.3931 22.7348 60.3931 17.5825C60.3931 12.3672 64.4883 8.63574 69.5914 8.63574C74.6945 8.63574 78.7897 12.4262 78.7897 17.5195C78.8017 22.7939 74.7345 26.5253 69.5914 26.5253ZM73.6867 17.5825C73.7467 15.2956 71.911 13.3945 69.5914 13.3354C69.5794 13.3354 69.5714 13.3354 69.5594 13.3354C67.3118 13.3354 65.4921 15.2759 65.4921 17.5825C65.4322 19.8654 67.2638 21.7666 69.5834 21.8256C69.5874 21.8256 69.5874 21.8256 69.5914 21.8256C71.995 21.8256 73.6867 19.8221 73.6867 17.5825Z" fill="white"/>
<path d="M84.3448 25.9976L78.2139 9.18262H83.5129L86.7803 19.6723H86.8603L90.1237 9.18262H95.4228L89.2599 25.9976H84.3448Z" fill="white"/>
<path d="M108.456 25.9981V24.1914H108.396C107.656 25.6753 105.621 26.5846 103.373 26.5846C98.3222 26.5846 94.8108 22.676 94.8108 17.5827C94.8108 12.6075 98.4741 8.6084 103.373 8.6084C105.469 8.6084 107.409 9.42711 108.396 10.9701H108.456V9.18307H113.571V25.9981H108.456ZM108.456 17.5709C108.46 15.2132 106.521 13.2963 104.125 13.2924C104.121 13.2924 104.117 13.2924 104.113 13.2924C101.77 13.2924 99.9219 15.2053 99.9219 17.6221C99.9339 19.9404 101.854 21.814 104.209 21.8022C106.565 21.7904 108.468 19.9011 108.456 17.5827V17.5709Z" fill="white"/>
<path d="M116.935 25.9983V13.0091H114.407V9.19112H116.935V3.5625H122.054V9.18325H124.521V13.0091H122.054V25.9983H116.935Z" fill="white"/>
<path d="M128.853 19.1257C129.133 21.0386 130.764 22.31 132.852 22.31C134.096 22.3493 135.272 21.755 135.964 20.7355H141.199C139.575 24.4236 136.451 26.557 132.852 26.557C127.853 26.5609 123.798 22.5697 123.794 17.6496C123.794 17.6457 123.794 17.6457 123.794 17.6417C123.794 12.7885 127.737 8.6084 132.76 8.6084C137.871 8.6084 141.783 12.5799 141.783 17.7913C141.791 18.24 141.751 18.6848 141.663 19.1257H128.853ZM136.679 15.7327C136.279 14.0048 134.74 12.8515 132.768 12.8515C130.916 12.8515 129.317 13.9418 128.917 15.7327H136.679Z" fill="white"/>
<path d="M155.16 15.6697C154.516 14.174 152.992 13.2293 151.341 13.3081C149.001 13.3081 147.397 15.221 147.397 17.5866C147.397 20.0388 149.093 21.8612 151.465 21.8612C153.044 21.9163 154.504 21.0307 155.16 19.6176H160.359C159.343 23.8293 155.676 26.5609 151.301 26.5609C146.29 26.553 142.238 22.55 142.246 17.6181C142.246 17.5984 142.246 17.5748 142.246 17.5551C142.186 12.6744 146.158 8.67135 151.117 8.6123C151.149 8.6123 151.177 8.6123 151.209 8.6123C155.708 8.6123 159.371 11.3991 160.327 15.6737L155.16 15.6697Z" fill="white"/>
<path d="M171.885 25.9983V16.7642C171.885 14.5796 171.025 13.3358 169.145 13.3358C167.202 13.3358 166.278 14.4576 166.278 16.5516V25.9983H161.167V3.5625H166.278V10.7892C167.018 9.42729 168.677 8.60858 170.713 8.60858C174.628 8.60858 177 11.0332 177 15.4298V25.9983H171.885Z" fill="white"/>
</g>
<defs>
<clipPath id="clip0">
<rect width="177" height="34" fill="white"/>
</clipPath>
</defs>
</svg>
