<svg width="20" height="19" viewBox="0 0 20 19" fill="none" xmlns="http://www.w3.org/2000/svg">
<path d="M9.09692 0.898964C9.45868 0.138261 10.5413 0.13826 10.9031 0.898962L12.9279 5.15662C13.0737 5.46316 13.365 5.67482 13.7016 5.71874L18.3765 6.32874C19.2118 6.43773 19.5463 7.46738 18.9347 8.0465L15.5111 11.2879C15.2646 11.5213 15.1533 11.8637 15.2156 12.1974L16.0801 16.8321C16.2345 17.6601 15.3587 18.2965 14.6188 17.8937L10.4782 15.6393C10.18 15.477 9.81995 15.477 9.52183 15.6393L5.38115 17.8937C4.64135 18.2965 3.76548 17.6601 3.91994 16.8321L4.78443 12.1974C4.84668 11.8637 4.7354 11.5213 4.48891 11.2879L1.06533 8.0465C0.453653 7.46738 0.788204 6.43773 1.62347 6.32874L6.29843 5.71874C6.63502 5.67482 6.92635 5.46316 7.07213 5.15662L9.09692 0.898964Z" fill="currentColor"/>
</svg>
